PathFileType	4	(X/Y/Z)	53_1_42_p0_0-382.trc
DataRate	CameraRate	NumFrames	NumMarkers	Units	OrigDataRate	OrigDataStartFrame	OrigNumFrames
60.0	60.0	7	27	m	60.0	0	383
Frame#	Time	RHip			RKnee			RAnkle			RBigToe			RSmallToe			RHeel			LHip			LKnee			LAnkle			LBigToe			LSmallToe			LHeel			Neck			Head			Nose			RShoulder			RElbow			RWrist			RThumb			RIndex			RPinky			LShoulder			LElbow			LWrist			LThumb			LIndex			LPinky			
		X1	Y1	Z1	X2	Y2	Z2	X3	Y3	Z3	X4	Y4	Z4	X5	Y5	Z5	X6	Y6	Z6	X7	Y7	Z7	X8	Y8	Z8	X9	Y9	Z9	X10	Y10	Z10	X11	Y11	Z11	X12	Y12	Z12	X13	Y13	Z13	X14	Y14	Z14	X15	Y15	Z15	X16	Y16	Z16	X17	Y17	Z17	X18	Y18	Z18	X19	Y19	Z19	X20	Y20	Z20	X21	Y21	Z21	X22	Y22	Z22	X23	Y23	Z23	X24	Y24	Z24	X25	Y25	Z25	X26	Y26	Z26	X27	Y27	Z27	
0	0.0	0.37898923671836077	0.6428879245254192	0.6605463924935222	0.35834995893810856	0.753018077701486	1.0924250756384613	0.33385854936608145	0.9178438874776335	1.528713100454407	0.2977066271851358	0.6667899021679622	1.5300700566610803	0.3555446776503502	0.7357395109573003	1.5638120129023796	0.32558147533429954	0.9983476708160267	1.5760240259028844	0.16067234456421475	0.6900147557401124	0.6416151317190207	0.15197646672159298	0.7805731068457118	1.0860526354896507	0.147898303936446	0.9007504631656138	1.5049553886149714	0.15742906634366138	0.7106027287974164	1.5375486909766498	0.10202585474838063	0.757495932746187	1.5407232160129571	0.16659432474115446	0.9766058273331617	1.5768046229009673	0.3036567823490039	0.4960461287305312	0.06528195860234451	0.30813752659232946	0.39092234599012293	-0.1642792983803649	0.29936200842378774	0.35265443027984117	-0.02840619807616489	0.44442744589153244	0.5038355679973345	0.16342938943905913	0.5063624596281967	0.5689755493591224	0.41815866113180605	0.3520606236040998	0.4290723947607112	0.5610701592312158	0.24605650402402124	0.3331100253320153	0.5360098337772022	0.2354291489893884	0.3783930733002358	0.5566271844839485	0.24833018480330293	0.42182427248512966	0.6077625492313188	0.13708174927929814	0.518447394157769	0.15088257468318675	0.0690409691139312	0.6017012153315145	0.4118884791829048	0.20005101008829954	0.42002758801827317	0.5322751407792963	0.25951958746657683	0.298340221236155	0.5282125217633606	0.27080743755214703	0.30982577924863863	0.551536938782178	0.26776216517238616	0.39756054576652455	0.5986965066164183
1	0.016666666666666666	0.3806612745049545	0.6691293481182369	0.6630116771009047	0.3574510810793061	0.7504604080327458	1.0877103092894627	0.3298758257091758	0.9368943332193719	1.5354605783980184	0.2973920395539341	0.6669925931776453	1.5329367758094465	0.3576576449439524	0.7147299304629566	1.555523067343748	0.3243388283261371	0.9998208340149377	1.5810830008283474	0.1652081195117439	0.6758940313918117	0.6440779641350352	0.15648803732782615	0.7942440208648083	1.0856182891542212	0.1478616670107	0.90084962640864	1.505029878636461	0.16677130846734767	0.6969359644900155	1.5325182351993796	0.10629724920359007	0.7631928046607376	1.5511241001959473	0.16691433569052314	0.9793189704440725	1.5810707068792897	0.30372369089044715	0.4959428423015362	0.06521426587321641	0.30819705491283744	0.3909587180045293	-0.164109269755042	0.3027396179843012	0.3410980354688669	-0.02681379584470699	0.44441074514281903	0.5039930197977829	0.16337960222055192	0.5068341565185296	0.5709759563172874	0.42197192589485283	0.3516458840339138	0.42747641715262125	0.5573728161652954	0.2516180198099	0.3141281134814632	0.5375200162304269	0.2362296861114468	0.3784904551141524	0.5568650620783799	0.2566982339575367	0.40890641770991404	0.6101242542583748	0.1370978923360768	0.5179273231775813	0.15086248715025197	0.06904923126254296	0.6014635406065396	0.4119541547743499	0.2043716710564273	0.40626021128864104	0.5313384663707429	0.2633582063082158	0.2865903857984126	0.530609420753737	0.2781374762700354	0.3289537203476799	0.5534042139252672	0.2754655485390083	0.39712261216161215	0.5986157526758847
2	0.03333333333333333	0.3798521084454194	0.6409693515636152	0.6601036833394683	0.35300992958176874	0.7365630073321764	1.084403592502318	0.3298455301720866	0.9370683042243297	1.5355035522557356	0.29739196551213815	0.6664188785996779	1.532647290543768	0.3576398941545312	0.7143927745621155	1.5553644056355118	0.32227350158687146	1.0203136747824688	1.5885036145163436	0.1691130066342661	0.6759213788884118	0.6440909736333342	0.15644396621365642	0.7942770543600777	1.0856115632868617	0.14869444692193454	0.9039447572649124	1.5107454492893113	0.1587799299194176	0.6805027527709508	1.5259853241122316	0.10182964397958029	0.7609985380527351	1.550198231428748	0.16688640699684196	0.9805555596068013	1.5767608432747133	0.3037352147024729	0.4958205779506227	0.06517872978291833	0.309225824443872	0.38209866558672784	-0.16252795340115175	0.30283072109393283	0.3405803881812336	-0.026781476890629995	0.44445799766370947	0.5040510324221965	0.1633632328855255	0.506879814046169	0.5708928431145089	0.42188766293260743	0.3516788478875512	0.4274565065093594	0.5572836043650692	0.2541267976052359	0.32037707321549613	0.5381362169776582	0.23947522186262135	0.36536412946272717	0.5558206257069727	0.26158747985240227	0.40792507731182304	0.6041302936016649	0.14111292094918876	0.5050079043604573	0.14851392081787498	0.06907056317603164	0.6012865258273951	0.4118708549221691	0.20022021009085805	0.41952292187623086	0.5321828838037976	0.2599463752595579	0.2984892418431575	0.5311972824342472	0.27512753745508267	0.32067024883603995	0.5524299115281553	0.27232848432499335	0.4091772255649281	0.5965536845216413
3	0.05	0.3839954745308293	0.6538595657795694	0.6614830126625989	0.35750201835940326	0.7507282238666056	1.0878214234116272	0.3298768470891054	0.9370931707147856	1.5354626897890324	0.2934211049366522	0.6527239065541725	1.5241505690725845	0.3580333252736309	0.7156994798812045	1.5559051447365384	0.32555519681388856	0.9986424606829072	1.57584203281382	0.16908821547888356	0.6760442136598771	0.6441249642415561	0.15642431449851418	0.7943090564527363	1.0857113599600992	0.1487237507473933	0.9040011926813114	1.5108411938673796	0.15873947087833365	0.6804169474979195	1.5259364658477572	0.10180597205945113	0.7611225939689054	1.550249396785025	0.16730845574382586	0.980911791005443	1.5817499634433718	0.30379463001777407	0.4956588477224281	0.06513287599048138	0.30936316277632375	0.38201184377451397	-0.1625414989157646	0.30314053951480785	0.34008854653022214	-0.029538029472475216	0.4488570134328744	0.5046728809149109	0.15967347631157897	0.5067932748252381	0.5714290724950739	0.4218874040511094	0.3517410530212429	0.4273875222368302	0.5573381053262156	0.2572545265990631	0.30884014203642496	0.5366194030306707	0.2390079174908069	0.35996137337033046	0.5484543258317287	0.26144446128888993	0.40720919579058173	0.6038146715687321	0.1408687603412378	0.5054657150793899	0.15168500530919107	0.06907123558701389	0.6012156935409971	0.4119158749144829	0.20431610414955587	0.4066119624907199	0.5311451265155882	0.25947386905059827	0.2971391959733146	0.5243500285666383	0.27805709265140466	0.32003522463831496	0.5464525207700324	0.26907783628534054	0.4211281809577252	0.5904677715114042
4	0.06666666666666667	0.3842026398034189	0.6540626609304332	0.6617314784320949	0.3530936486736425	0.7365521835883073	1.0843991679515197	0.3298687918284451	0.9369542923408194	1.5354266255241493	0.2937699582650121	0.6543709906702734	1.5277780284403604	0.3576170146220747	0.7143668192374313	1.5552758576578587	0.32655377847661826	1.0017381610973604	1.5818386916130673	0.16911002955300813	0.6760038787846611	0.6441434424568127	0.15642243303574957	0.79431658118137	1.0856960438390568	0.14873092747484978	0.9040054835521298	1.5107217339324746	0.1587417370476122	0.6803997661419657	1.5258838032751365	0.10128606261743403	0.7586513301662986	1.5452440118795008	0.16771915647249616	0.9826577779294379	1.5823379708818426	0.30378609589526917	0.495625380313132	0.06516463458112387	0.3126919367470696	0.3923951024407113	-0.16436026146042151	0.30639450493799286	0.3287531828400437	-0.02802550734256453	0.44442450885161683	0.5038530078848877	0.16337376332113415	0.5040401213873456	0.5865734494067034	0.4183587609633754	0.3517011585779774	0.4274962333932133	0.5572234522593005	0.2575596100766844	0.30840703581107637	0.5364008314374912	0.2423734160571946	0.3464952721184005	0.5468380722811023	0.25359601758052375	0.3949832911507083	0.598896597257208	0.14083036194771062	0.5052327823572839	0.15164933899447727	0.06903283255344071	0.6011387125026122	0.4119373562792616	0.20423874068109418	0.39501908759948645	0.5266826765675663	0.2633667598112132	0.3076022719759146	0.5251117265976812	0.2784784675340997	0.3202537182817813	0.5460296454036635	0.27667018410145366	0.4088063430915773	0.589462693337278
5	0.08333333333333333	0.38340659453879244	0.6550500620143522	0.6614490319095634	0.35316126863791064	0.7364889479044819	1.0840561428106708	0.32988665279490453	0.9371023125467073	1.5354467739176947	0.2928838989424931	0.6506557033943796	1.522908781536042	0.35438685012147464	0.7310286279321391	1.5617414079464984	0.3312354898895069	1.0186542144066613	1.588044580074872	0.16908306714238835	0.6756699580674651	0.6439650471813951	0.1563934216437295	0.7941473995120673	1.0857186335989022	0.14871388218096315	0.9039806144250495	1.5108158778249712	0.1587229989086644	0.6800810333180609	1.5257223320686297	0.10107073997062715	0.7594005801783255	1.5406106370808827	0.16782475489278434	0.9829457659925233	1.5824759978804686	0.30401920636814633	0.4951129281243053	0.0620946263356337	0.30946600500806354	0.38176782786091057	-0.16252793365928758	0.3064172699804138	0.3287186648014643	-0.02802307563115463	0.44448207844402676	0.5036033584150333	0.16334965553728734	0.5013294601706136	0.6013704444329813	0.41875004940027205	0.3517219133263887	0.427665276955166	0.5571995841541978	0.260170890353599	0.31935333985573566	0.5372339716218942	0.23940299639825233	0.3588417900754137	0.5481452511371488	0.2536670936259863	0.3958741808258569	0.598860555940277	0.14086633087141753	0.5051714273541079	0.15165983827335577	0.0688134659424157	0.5989497230434417	0.4081460049646877	0.2042121318715449	0.39468035781798927	0.5264422769309101	0.26698033759778156	0.29640879120803904	0.5242128326914305	0.2785778493785205	0.3202968815877551	0.5459247256467272	0.27662436955832376	0.4091768170765823	0.5894646558028721
6	0.1	0.3838274344989855	0.6537940306738883	0.6570300354525139	0.3476299326101441	0.7193720649673762	1.075711904023035	0.32985314283283235	0.9371469407961726	1.5354424602973609	0.2928620296963343	0.6510321303461482	1.523134365584556	0.35755115688297184	0.7139036551153985	1.554995244252685	0.32997247574659544	1.0214939350254437	1.5891277283841472	0.16494708899073832	0.6758032318570675	0.640145555795248	0.15642222101516076	0.793999115942732	1.085583008897996	0.14868332718528898	0.9040856420443856	1.5106439471060646	0.15869715481588947	0.6804339931348435	1.5257770577832417	0.10093149029937437	0.7602155419644152	1.5410157983171493	0.1676466020507506	0.9841932792790606	1.5779600446752697	0.3073940836996223	0.48262030035071746	0.06337848029277944	0.31279963852359843	0.3925142993118145	-0.16437157504188138	0.3065128254963714	0.3285644532641625	-0.028025485451321094	0.4445289327377317	0.5034931302428337	0.16332015076104284	0.5013053625386628	0.6015041939110665	0.41864834188275923	0.35543510407433754	0.4367590318262472	0.5509325991368802	0.2602516503262995	0.3185173603792567	0.5375771609803793	0.24274862393282154	0.3480275328426049	0.5477258101880362	0.2579234984489826	0.4079812938693822	0.5933653090319859	0.14086496735068044	0.5049739673378062	0.1516443004617769	0.06880411646069047	0.5987438950643598	0.40801420223055584	0.20770180584329598	0.405559033523203	0.5270054734931198	0.27069248695333287	0.3069249855609002	0.5252392925995676	0.28220303271187624	0.3300369660741046	0.5469365948231433	0.2736109364070509	0.40813412474633304	0.5862348342715421
